<svg height="512pt" viewBox="-86 0 512 512" width="512pt" xmlns="http://www.w3.org/2000/svg"><g fill-rule="evenodd"><path d="m287.234375 341.171875v-239.703125c0-25.492188-20.742187-46.234375-46.234375-46.234375h-12.871094c-14.304687-32.488281-46.800781-55.234375-84.511718-55.234375-37.714844 0-70.214844 22.742188-84.511719 55.234375h-12.871094c-25.496094 0-46.234375 20.742187-46.234375 46.234375v108.128906c0 5.519532 4.476562 10 10 10s10-4.480468 10-10v-108.128906c0-14.464844 11.769531-26.234375 26.234375-26.234375h6.683594c-1.039063 5.527344-1.585938 11.226563-1.585938 17.050781 0 5.523438 4.476563 10 10 10h164.589844c5.519531 0 10-4.476562 10-10 0-.226562-.011719-.453125-.023437-.675781-.042969-5.589844-.582032-11.0625-1.582032-16.375h6.679688c14.46875 0 26.234375 11.769531 26.234375 26.234375v233.449219c-.089844-.015625-.183594-.027344-.277344-.042969-4.230469-.765625-55.1875-10.191406-89.238281 36.652344-30.144532 41.472656-12.039063 78.21875-11.273438 80.324218.054688.152344.097656.308594.152344.460938h-120.359375c-14.464844 0-26.234375-11.773438-26.234375-26.238281v-136.476563c0-5.523437-4.476562-10-10-10s-10 4.476563-10 10v136.480469c0 25.492187 20.742188 46.234375 46.234375 46.234375h130.40625c16.035156 23.914062 43.3125 39.6875 74.207031 39.6875 49.238282 0 89.292969-40.058594 89.292969-89.292969 0-36.285156-21.753906-67.578125-52.90625-81.535156zm-215.214844-258.886719c4.882813-35.144531 35.128907-62.285156 71.597657-62.285156 36.464843 0 66.710937 27.140625 71.59375 62.285156zm178.828125 409.714844c-30.976562 0-57.269531-20.4375-66.109375-48.535156-1.597656-5.074219-11.167969-35.464844 10.585938-62.152344 10.207031-12.527344 23.773437-22.398438 40.027343-26.128906 7.898438-1.8125 16.027344-1.933594 24.097657-1.222656 14.707031 1.289062 32.363281 11.179687 41.941406 21.394531 11.625 12.398437 18.75 29.054687 18.75 47.351562 0 38.207031-31.082031 69.292969-69.292969 69.292969zm0 0"/><path d="m297.617188 389.171875c-3.902344-3.90625-10.234376-3.90625-14.140626 0l-45.859374 45.859375-19.394532-19.394531c-3.90625-3.90625-10.238281-3.90625-14.144531 0-3.902344 3.902343-3.902344 10.234375 0 14.140625l26.46875 26.46875c1.949219 1.949218 4.511719 2.929687 7.070313 2.929687 2.558593 0 5.117187-.980469 7.070312-2.929687l52.929688-52.933594c3.90625-3.90625 3.90625-10.238281 0-14.140625zm0 0"/><path d="m61.332031 304.550781h164.570313c5.523437 0 10-4.480469 10-10 0-5.523437-4.476563-10-10-10h-164.570313c-5.523437 0-10 4.476563-10 10 0 5.519531 4.476563 10 10 10zm0 0"/><path d="m61.332031 350.519531h82.285157c5.523437 0 10-4.476562 10-10 0-5.523437-4.476563-10-10-10h-82.285157c-5.523437 0-10 4.476563-10 10 0 5.523438 4.476563 10 10 10zm0 0"/><path d="m61.332031 166.640625h164.570313c5.523437 0 10-4.476563 10-10s-4.476563-10-10-10h-164.570313c-5.523437 0-10 4.476563-10 10s4.476563 10 10 10zm0 0"/><path d="m61.332031 258.578125h164.570313c5.523437 0 10-4.476563 10-10 0-5.519531-4.476563-10-10-10h-164.570313c-5.523437 0-10 4.480469-10 10 0 5.523437 4.476563 10 10 10zm0 0"/><path d="m61.332031 212.609375h164.570313c5.523437 0 10-4.476563 10-10 0-5.519531-4.476563-10-10-10h-164.570313c-5.523437 0-10 4.480469-10 10 0 5.523437 4.476563 10 10 10zm0 0"/><path d="m10 259.597656c5.507812 0 10-4.492187 10-10 0-5.507812-4.492188-10-10-10s-10 4.492188-10 10c0 5.507813 4.492188 10 10 10zm0 0"/></g></svg>